/* XPM */
static char *_0a6d8fcd28e4821d561cbfb9fce0501IyoH3k4BlaL74xNI[] = {
/* columns rows colors chars-per-pixel */
"70 70 153 2 ",
"   c None",
".  c #1D191F",
"X  c #211D1F",
"o  c #000D24",
"O  c #0C152A",
"+  c #1E1B21",
"@  c #10182D",
"#  c #211D25",
"$  c #241F28",
"%  c #252121",
"&  c #26212A",
"*  c #29242E",
"=  c #2C2731",
"-  c #2E2833",
";  c #312C35",
":  c #332D38",
">  c #393134",
",  c #37303A",
"<  c #3B343B",
"1  c #3F383C",
"2  c #433B3D",
"3  c #563435",
"4  c #583636",
"5  c #5A3738",
"6  c #5D3B3C",
"7  c #623E3E",
"8  c #4C423F",
"9  c #4A464F",
"0  c #524640",
"q  c #564A43",
"w  c #5A4D42",
"e  c #4D4B52",
"r  c #504D56",
"t  c #535157",
"y  c #52525F",
"u  c #58555E",
"i  c #664141",
"p  c #684140",
"a  c #744746",
"s  c #754946",
"d  c #7C4D4A",
"f  c #665544",
"g  c #6E5B45",
"h  c #715A41",
"j  c #7A6348",
"k  c #7F684A",
"l  c #4C5466",
"z  c #555562",
"x  c #5B5A64",
"c  c #5F5F6B",
"v  c #615E65",
"b  c #665F6E",
"n  c #646266",
"m  c #63626B",
"M  c #6D6B6B",
"N  c #706E6E",
"B  c #6B6473",
"V  c #6D6B73",
"C  c #7B6F75",
"Z  c #726D7A",
"A  c #6C707F",
"S  c #74717C",
"D  c #78737E",
"F  c #747372",
"G  c #83544B",
"H  c #876D4A",
"J  c #886E4B",
"K  c #8D714B",
"L  c #90734B",
"P  c #9B7B4D",
"I  c #9A7C78",
"U  c #A38150",
"Y  c #B48D51",
"T  c #BA9052",
"R  c #9B8279",
"E  c #BF9B65",
"W  c #A49379",
"Q  c #C3A67C",
"!  c #777481",
"~  c #7A7683",
"^  c #7C7984",
"/  c #7E7B88",
"(  c #817D86",
")  c #827F8A",
"_  c #84828D",
"`  c #88868C",
"'  c #9C948C",
"]  c #878590",
"[  c #8A8791",
"{  c #8C8B94",
"}  c #8F8E99",
"|  c #908D95",
" . c #9E8E91",
".. c #908F99",
"X. c #8F909E",
"o. c #93939D",
"O. c #99979D",
"+. c #9C999F",
"@. c #9696A1",
"#. c #9997A0",
"$. c #9698A5",
"%. c #9B9BA4",
"&. c #9E9EA8",
"*. c #A09FA5",
"=. c #9FA1AC",
"-. c #A1A0A7",
";. c #A9A7A7",
":. c #A4A4AC",
">. c #ABAAAE",
",. c #B0AEAE",
"<. c #B4B2AD",
"1. c #A5A5B0",
"2. c #A7A8B1",
"3. c #ABACB2",
"4. c #A9ADB8",
"5. c #B0AFB3",
"6. c #AEB0B7",
"7. c #ADB1BB",
"8. c #B2B2B4",
"9. c #BAB5B4",
"0. c #BAB9B3",
"q. c #B5B4B9",
"w. c #B9B7B9",
"e. c #B7B9BE",
"r. c #BCBBBC",
"t. c #C5B79C",
"y. c #C2BDAA",
"u. c #C1BFBC",
"i. c #C5C1B7",
"p. c #C5C3BE",
"a. c #C9C7BB",
"s. c #C8C6BC",
"d. c #DCCFBD",
"f. c #B2B6C0",
"g. c #B4B9C2",
"h. c #BBBEC4",
"j. c #BABFC8",
"k. c #BEC1C6",
"l. c #BBC0C8",
"z. c #C3C2C3",
"x. c #C8C7C1",
"c. c #CAC9C4",
"v. c #D3D1CB",
"b. c #D6D6D7",
"n. c #D3D6DC",
"m. c #DFDFE0",
"M. c #E6E5E5",
"N. c #E5E9EE",
"B. c #EAEAEB",
"V. c #EBEFF4",
"C. c #F2F2F5",
"Z. c #F2F2F4",
"A. c #F1F1F4",
/* pixels */
"                                                                                                                                            ",
"                                                                                                                                            ",
"                                                                                                                                            ",
"                                                                                                                                            ",
"                                                                                                                                            ",
"                                                                                                                                            ",
"                                                                                                                                            ",
"                                                                                                                                            ",
"                                                                                                                                            ",
"                                                        %.$.$.X.e r o.#.#.    l o                                                           ",
"                                                    -.; # . + & $ & & & & z o.A O #.                                                        ",
"                                                m.> # . + + + + $ & & * * * = o.X.@ |                                                       ",
"                                            v.' 2 < X . + + $ $ $ & * * = = = = * o.:.                                                      ",
"                                          s.h 2 < < . . + + + & & & & * = = = = = * &.                                                      ",
"                                          W 8 2 < < . # + $ + $ & & = * * = = - = - O.                                                      ",
"                                        p.h 2 < : ; . . + + & $ & = * = = = - - - - - =.                                                    ",
"                                      Z.P q 2 < , : + + + + $ & * * * = - = - - - - - $ &.                                                  ",
"                                      B.H 8 < , : - + + + + $ & & * * = * - - - - - - - :.                                                  ",
"                                      i.j 2 < < : - + + + + & & * * * - - - * - - - - - x                                                   ",
"                                    Z.Y g 2 < : - = + + + & & * * * * * - = - - - - - ; & &.                                                ",
"                                    Z.Y f 2 < : ; : + + + $ $ & $ * = = = - - - - - - - * %.                                                ",
"                                    Z.Y f 2 < < : : + + + + & & * * = = = - - - - - - - * :.                                                ",
"                                    C.T g 2 < : : ; + + $ $ $ & $ = * = - = - - - - - - u 2.                                                ",
"                                      t.j 2 < < : ; + + + + $ & * $ = = - - - - - - - - 2.:.:.                                              ",
"                                      M.K 0 < < : : + + + + & & * * = = = = - - - - - 9 :.2.:.                                              ",
"                                      Z.U w 1 < : : + + + & & & $ * & = = = - = - - [ 2.2.>.3.                                              ",
"                                        E g 2 1 < : + + + + + & * * * = * - = - * :.2.2.;.>.:.                                              ",
"                                        C.L 0 2 < : + . + + $ $ $ * & = = = = - :.:.;.2.2.2.:.                                              ",
"                                          Q g 2 1 < - + . + $ $ $ & & = * ; &.:.>.&.>.>.>.:.                                                ",
"                                          Z.P w 2 1 < . + + + $ $ & $ v #.&.&.:.:.:.o.: :.`                                                 ",
"                                            Z.J 0 2 < # X % + + $ &.#.O.@.%.&.*.:.:.&.&.V _ [                                               ",
"                                              d.k q 2 % + + V &.%.#.@.@.@.%.#.&.&.#.%.m c / |                                               ",
"                                              C.a.s.s.i.r.4.>.:.%.$.#.o.@.@.#.#.%.o.m x z ^ | `                                             ",
"                                                Z.a.s.u.s.x.r.8.:.:.%.#.@.o.#.%.#.m m x z Z | >.    z.                                      ",
"                                                0.A.s.p.s.z.z.r.5.3.:.:.%.*.:.2.:.:.&._ z A { >.  z.>.                                      ",
"                                                y.0.A.a.u.z.z.p.z.r.3.:.2.3.2.:.&.:.&.&.%.^ [ r.n z.%.                                      ",
"                                                  i.<.A.x.;.x.-._ &.1.2.:.&.=.=.&.&.$.%...| w.c.{ w.                                        ",
"                                                  R <.M n v z.z.z.r.:...@.@.$.$.%.$.%.} | s z.z.q.w.) (                                     ",
"                                                  r.9.N m s.s.z.z.k.l.j.g.f.f.$.} @.o.%.| d z.z.| 4.D Z                                     ",
"                                                  r.<.F x.s.z.z.z.k.j.j.j.V.j.f.q.4.e.8.} a z.r.z.u.n e                                     ",
"                                                  u.<.A.p.u.r.r.z.z.j.j.n.V.V.g.4.4.2.2.{ 6 +.` _ D Z                                       ",
"                                                  r.Z.u.u.8.8.8.z.l.l.j.V.N.n.g.4.4.*.:.:.] 6 4 3 5                                         ",
"                                                  0.G G G >.O.r.z.j.z.j.j.j.h.f.7.3.$...#._ ) ) (                                           ",
"                                                  Z.x.u.0.s C r.z.z.z.l.j.h.h.g.q.:.o._ } V _                                               ",
"                                                  c.x.u.w.8.| r.z.z.k.k.k.h.q.4.4.%.{ ~ ) @.                                                ",
"                                                  s.p.r.8.*.| r.z.z.z.k.u.q.5.3.:.%.[ D ) %.                                                ",
"                                                Z.p.p.r.>.O._ r.j.k.k.k.q.q.5.:.*.] _ ~ ] !                                                 ",
"                                                u.p.p.r.3.` _ w.h.r.u.r.q.1.o.#.[ ) ! / z @.                                                ",
"                                                9.x.z.r.8.o.r >.q.r.e.4.%.{ ) ! ~ ! ! ^ } }                                                 ",
"                                                  b.p.r.>.| ( -.#.! ) [ ) ! ! ! / / / [ o.o.                                                ",
"                                                  ;.,.u.;.| D *.*.$.[ ) ) ) ) ) _ / _ X.X.X.                                                ",
"                                                    r.z.,.( ( *.q.*.} } [ } { ) ^ [ %.o.@.@.                                                ",
"                                                        b.( +.z.h.q.q.) B b Z #.4.8.#.{ o.%.                                                ",
"                                                            z.z.z.u.k.*.@.B :.r.e.3.o.] o.i                                                 ",
"                                                            G G I 9.r. .p 4 a d d a 4 4 7                                                   ",
"                                                            z.z.z.r.e.5.#.o.q.z.g.:.) ] #.                                                  ",
"                                                              z.u.g.q.*.#.*.r.z.5._ _ {                                                     ",
"                                                              z.w.9.*.{ o.{ 3.[ _ { } o.                                                    ",
"                                                                >...] ] *.  *...o.#.#.                                                      ",
"                                                                                                                                            ",
"                                                                                                                                            ",
"                                                                                                                                            ",
"                                                                                                                                            ",
"                                                                                                                                            ",
"                                                                                                                                            ",
"                                                                                                                                            ",
"                                                                                                                                            ",
"                                                                                                                                            ",
"                                                                                                                                            ",
"                                                                                                                                            "
};
