/* XPM */
static char *_60c12dd1f23463a834234a4acc2554dVH8xRd4Tzu9lrSob[] = {
/* columns rows colors chars-per-pixel */
"70 70 123 2 ",
"   c None",
".  c #433756",
"X  c #443756",
"o  c #443855",
"O  c #443856",
"+  c #443857",
"@  c #463857",
"#  c #473857",
"$  c #764060",
"%  c #7C4261",
"&  c #864363",
"*  c #FF4F4F",
"=  c #FF5050",
"-  c #FF5151",
";  c #FF5152",
":  c #FF5252",
">  c #FE5353",
",  c #FC5758",
"<  c #FE5759",
"1  c #FD5C5C",
"2  c #DD406A",
"3  c #DE406A",
"4  c #DE416B",
"5  c #DF426B",
"6  c #E0426B",
"7  c #E0426C",
"8  c #E1426C",
"9  c #E1436C",
"0  c #E2436C",
"q  c #E3446D",
"w  c #E4456D",
"e  c #E4456E",
"r  c #E5456E",
"t  c #E7476F",
"y  c #E84870",
"u  c #E94870",
"i  c #EB4A71",
"p  c #EC4A72",
"a  c #EF4C73",
"s  c #F04C74",
"d  c #F24F75",
"f  c #F34F75",
"g  c #F44F75",
"h  c #F45076",
"j  c #F55076",
"k  c #F65177",
"l  c #F75277",
"z  c #F85277",
"x  c #F95278",
"c  c #FA5378",
"v  c #FA5479",
"b  c #FB5479",
"n  c #FC557A",
"m  c #FD567A",
"M  c #FE567A",
"N  c #FF567A",
"B  c #FF577A",
"V  c #FE567B",
"C  c #FF567B",
"Z  c #FE577B",
"A  c #FF577B",
"S  c #FF567C",
"D  c #FF577C",
"F  c #FF587B",
"G  c #F9696A",
"H  c #FA686A",
"J  c #FA696A",
"K  c #F77275",
"L  c #F87073",
"P  c #F87074",
"I  c #F57B7F",
"U  c #FF7094",
"Y  c #FF7195",
"T  c #FF7096",
"R  c #FF7196",
"E  c #FF7197",
"W  c #FF7297",
"Q  c #FF7398",
"!  c #5C99F2",
"~  c #5F9BF2",
"^  c #609BF2",
"/  c #6DA4F3",
"(  c #76A9F3",
")  c #76A9F4",
"_  c #F3858A",
"`  c #F3878C",
"'  c #E8B3BD",
"]  c #ACB2C6",
"[  c #B6BED0",
"{  c #8CB7F5",
"}  c #95BDF5",
"|  c #98BFF5",
" . c #99BFF5",
".. c #E6BBC5",
"X. c #E7BDC8",
"o. c #E7BEC8",
"O. c #AFCDF6",
"+. c #B4D0F7",
"@. c #B4D1F7",
"#. c #B6D2F7",
"$. c #E3C9D5",
"%. c #E3CBD7",
"&. c #DFDDEB",
"*. c #C0D9F7",
"=. c #CADFF8",
"-. c #CBDFF8",
";. c #E0D7E4",
":. c #DEE3F1",
">. c #D9E7F5",
",. c #DDE7F6",
"<. c #D0E2F8",
"1. c #DBE9F8",
"2. c #DAE8F9",
"3. c #DBE9F9",
"4. c #DBEAF9",
"5. c #DCE9F8",
"6. c #DCE9F9",
"7. c #DCEAF8",
"8. c #DCEAF9",
"9. c #DDEBF9",
"0. c #DCE9FA",
"q. c #DCEAFA",
"w. c #DEEBFA",
/* pixels */
"                                                                                                                                            ",
"                        A A A A A A A A A A A A A A A A A A A A A A A A A A A A A A A A A A A A A A A A A A A A A D                         ",
"                        A A A A A A A A A A A A A A A A A A A A A A A A A A A A A A D F A A A A A A A A A A A A A A                         ",
"                        A A A A A A A A A b q A A A A A A A A A A A A A A A A A A A A F A A A A A A A A A A A A A A                         ",
"                          A A A A A A A A l 3 A A A A A A A A A A A A A A A A A A A A y 8 z A A A A A A A A A A A                           ",
"                          A A A A A A A A l 3 a A A A A A A A A A A A A l g A A A A A p 2 p A A A A A A A A A A F                           ",
"                            A A A A A A A A t 3 d A d x A A A A A A A A y 6 A A A A A x 2 8 y t t A A A A A A A D                           ",
"                  R R         A A A A A A A b q 2 2 2 8 A A A A b x A l 6 8 A A A A A A A 8 2 3 8 A A A A A A A                             ",
"                R R R           A A A A A A A A d d d A A A A A q 8 y q 2 l A A A A A A A b d l A A A A A A                                 ",
"                  R R             F A A A A A A A A A A A A A A F 3 5 5 l A A A A A A A A A A A A A A A                                     ",
"                                    D A A A A A A A A A A A A A A A F F A A A A A A A A A A A A A A A A                                     ",
"                                        A A A A A A A A A A A A A A A D A A A A A A A A A A A A A A                                         ",
"                                                A A A A A A A A A A h h F F A A A A A A A A                   R R                           ",
"                                                          A A A A A e q D D A A A                             R R                           ",
"                                                          A A A A A q q D A A A A                             R R                           ",
"                        R R                                 A A A A t q A A A A                                                             ",
"                      R R R R                               A A D D q q A A A A                                                             ",
"                      R R R R                               A A D F e t A A A A                                                             ",
"                      R R R R                                 A A A q q A A A                   R R                                         ",
"                      R R R R             Q R                 D A A q t A A A                 R R R R                                       ",
"                                          R R R               A A A q t A A A                 R R R R                                       ",
"                                          R R Q               D A A A A A D A                   Q R                                         ",
"                                                            O % & & & & & & $ @                                                             ",
"                                                          O O O O . . . O O O O .                                                           ",
"                                                          X O O O O O O O O O O X                                                           ",
"                                                            O O O O O O O O O O                                                             ",
"                                                            O O O O O O O O O O                                                             ",
"                                                              O O O O O O O O                                                               ",
"                                          = =               >.[ ] ] ] ] ] ] [ >.              = =                                           ",
"                                          = = = =       3.8.8.8.8.8.8.8.8.8.8.8.8.8.      = = = =                                           ",
"                                          = = = = = = ,.8.8.8.8.8.8.8.8.8.8.8.8.8.8.,.= = = = = =                                           ",
"                                          = = = = = = $.8.8.8.8.8.8.8.8.8.8.8.8.8.8.$.= = = = = =                                           ",
"                                          = = = = = = $.8.8.8.8.8.8.8.8.8.8.8.8.q.7.$.= = = = = =                                           ",
"                                          = = = = = = $.8.8.8.8.8.8.8.8.8.8.8.8.7.q.$.= = = = = =                                           ",
"                                          = = = = = = $.8.8.8.8.8.8.8.8.8.8.8.8.q.q.$.= = = = = =                                           ",
"                                            = = = = : %.8.8.8.8.8.8.8.8.8.8.8.8.q.q.%.= = = = =                                             ",
"                                            = = = = J &.8.8.8.8.8.8.8.8.8.8.8.8.8.8.;.J = = = =                                             ",
"                                              = = = L &.8.8.8.8.8.8.8.8.8.8.8.8.8.8.&.K = = =                                               ",
"                                                = = I :.8.8.8.8.8.8.8.8.8.8.8.8.8.8.:.I = =                                                 ",
"                                                = = _ >.8.8.8.8.8.8.8.8.8.8.8.8.8.8.8._ = =                                                 ",
"                                                  = ` 8.8.8.8.8.8.8.8.8.8.8.8.8.8.8.8.` =                                                   ",
"                                                    ` 8.8.8.8.8.8.8.8.8.8.8.8.8.8.8.8.`                                                     ",
"                                                    ..8.8.8.8.8.8.8.8.8.8.8.8.8.8.8.8.                                                      ",
"                                                      8.8.8.8.8.8.8.8.8.8.8.8.8.8.8.8.                                                      ",
"                                                      8.8.8.8.8.8.8.8.8.8.8.8.8.8.8.8.                                                      ",
"                                                      8.8.8.8.8.8.8.8.8.8.8.8.8.8.8.8.                                                      ",
"                                                      8.8.8.8.8.8.8.8.8.8.8.8.8.8.8.8.                                                      ",
"                                                      8.8.8.8.8.8.8.8.8.8.8.8.8.8.8.8.                                                      ",
"                                                      8.8.8.8.8.9.9.w.w.8.8.8.8.8.8.8.                                                      ",
"                                                      8.8.8.8.8.9.<.*.#.<.8.8.8.8.8.8.                                                      ",
"                                                      8.8.8.8.3. .( ! ! )  .3.3.8.8.8.                                                      ",
"                                                      8.8.8.8.@.^ ! ! ! ! ~ #.8.8.8.8.                                                      ",
"                                                      8.8.8.3.| ! ! ! ! ! !  .3.8.8.8.                                                      ",
"                                                      8.8.8.3.{ ! ! ! ! ! ! { 3.8.8.8.                                                      ",
"                                                      8.8.8.8. .! ! ! ! ! !  .8.8.8.8.                                                      ",
"                                                      8.8.8.8.#.^ ! ! ! ! ^ #.8.8.8.8.                                                      ",
"                                                      8.8.8.8.8.} / ! ! / } 9.3.8.8.8.                                                      ",
"                                                      9.8.8.8.8.9.-.O.O.-.3.3.9.8.8.8.                                                      ",
"                                                      9.8.8.8.8.3.9.3.9.9.3.9.3.8.8.8.                                                      ",
"                                                        8.8.8.8.9.3.9.3.3.9.3.9.8.8.                                                        ",
"                                                        9.8.8.8.3.9.3.9.9.3.9.3.:.5.                                                        ",
"                                                          o.' ' ' ' ' ' ' ' ' ' $.                                                          ",
"                                                          , = = = = = = = = = = ,                                                           ",
"                                                            = = = = = = = = = :                                                             ",
"                                                              = = = = = = = =                                                               ",
"                                                                = = = = = =                                                                 ",
"                                                                J = = = = J                                                                 ",
"                                                                  P = = L                                                                   ",
"                                                                    1 1                                                                     ",
"                                                                                                                                            "
};
