/* XPM */
static char *c791d694643b42aba39b08f1b370ab8drnWekEyA2ILQ1wdc[] = {
/* columns rows colors chars-per-pixel */
"70 70 170 2 ",
"   c None",
".  c black",
"X  c #010100",
"o  c #000001",
"O  c #000101",
"+  c #020301",
"@  c #000102",
"#  c #000202",
"$  c #000203",
"%  c #030502",
"&  c #040501",
"*  c #040502",
"=  c #040602",
"-  c #050702",
";  c #050703",
":  c #000304",
">  c #000405",
",  c #000406",
"<  c #000506",
"1  c #060803",
"2  c #070903",
"3  c #090C04",
"4  c #000608",
"5  c #000708",
"6  c #000709",
"7  c #00080B",
"8  c #00090B",
"9  c #000B0E",
"0  c #0F1407",
"q  c #0F1607",
"w  c #101608",
"e  c #101708",
"r  c #121808",
"t  c #141C0A",
"y  c #141D0A",
"u  c #151D0A",
"i  c #151E0A",
"p  c #161F0A",
"a  c #000E12",
"s  c #000F13",
"d  c #001014",
"f  c #001015",
"g  c #001317",
"h  c #001318",
"j  c #001419",
"k  c #00151A",
"l  c #00161B",
"z  c #00161C",
"x  c #00171D",
"c  c #00181D",
"v  c #00191F",
"b  c #18210B",
"n  c #19230C",
"m  c #1A250D",
"M  c #1C270E",
"N  c #1C280D",
"B  c #1D290E",
"V  c #1E2A0E",
"C  c #273713",
"Z  c #001C23",
"A  c #001F27",
"S  c #001F28",
"D  c #002028",
"F  c #022128",
"G  c #00242D",
"H  c #002B36",
"J  c #002E39",
"K  c #304418",
"L  c #314518",
"P  c #344819",
"I  c #354B1A",
"U  c #374E1B",
"Y  c #384E1B",
"T  c #39501C",
"R  c #3B531C",
"E  c #3F581E",
"W  c #405A1F",
"Q  c #425D20",
"!  c #456221",
"~  c #466322",
"^  c #476422",
"/  c #4A6823",
"(  c #4E6E26",
")  c #5A7E2B",
"_  c #557D30",
"`  c #003340",
"'  c #003442",
"]  c #003644",
"[  c #003846",
"{  c #003947",
"}  c #003A49",
"|  c #003B4B",
" . c #003C4B",
".. c #003C4C",
"X. c #003D4D",
"o. c #003E4E",
"O. c #003F4F",
"+. c #004152",
"@. c #004253",
"#. c #004B5F",
"$. c #004D61",
"%. c #004E62",
"&. c #005266",
"*. c #005267",
"=. c #00586F",
"-. c #5C812C",
";. c #5D822D",
":. c #5E842D",
">. c #60872E",
",. c #61892F",
"<. c #638A2F",
"1. c #668F31",
"2. c #679131",
"3. c #6A9533",
"4. c #6C9834",
"5. c #6F9C36",
"6. c #709D36",
"7. c #719F36",
"8. c #73A237",
"9. c #74A438",
"0. c #75A438",
"q. c #76A639",
"w. c #77A739",
"e. c #78A83A",
"r. c #7AAC3B",
"t. c #7BAD3B",
"y. c #7CAD3B",
"u. c #7EB23D",
"i. c #7FB33D",
"p. c #7FB945",
"a. c #7AB74A",
"s. c #80B53E",
"d. c #81B63E",
"f. c #83B93F",
"g. c #84B93F",
"h. c #84BA40",
"j. c #85BA40",
"k. c #85BB40",
"l. c #006984",
"z. c #006A85",
"x. c #006B87",
"c. c #006C88",
"v. c #006E8A",
"b. c #007291",
"n. c #007593",
"m. c #007896",
"M. c #007999",
"N. c #007A9A",
"B. c #007B9B",
"V. c #007C9C",
"C. c #007E9E",
"Z. c #007FA0",
"A. c #0080A1",
"S. c #0082A4",
"D. c #0084A6",
"F. c #0084A7",
"G. c #0087AA",
"H. c #0088AC",
"J. c #008BAE",
"K. c #0B96AF",
"L. c #008CB1",
"P. c #008DB1",
"I. c #008DB2",
"U. c #008EB2",
"Y. c #0090B5",
"T. c #0091B6",
"R. c #0091B7",
"E. c #0092B8",
"W. c #0093B8",
"Q. c #0093B9",
/* pixels */
"                                                                                                                                            ",
"                                                                                                                                            ",
"                                                            . . . . . . . . . .                                                             ",
"                                                    . . . . . . . . . . . . . . . . . .                                                     ",
"                                              . . . . . . . . V / M.P.P.C.*.D . . . . . . . .                                               ",
"                                          . . . . . w k.k.k.k.k.k.K.Q.Q.Q.Q.Q.k.k.k.k.M . . . . .                                           ",
"                                      . . . . & k.k.k.k.k.k.k.k.k.. . Q.Q.Q.Q.k.k.k.k.k.k.k.& . . . .                                       ",
"                                  . . . . I k.k.k.k.k.k.k.k.k.k.k.. . d Q.Q.Q.V . . :.k.k.k.k.k.Q . . . .                                   ",
"                                . . . r k.k.k.k.k.k.k.k.k.k.k.k.k.d.. . Q.Q.Q.. . . . . k.k.k.k.k.k.n . . .                                 ",
"                            . . . . k.k.k.k.k.k.k.. . . . k.k.k.k.k.. . z Q.Q.Q.Q.{ . . k.k.k.k.k.k.k.k.. . . .                             ",
"                          . . . i k.k.k.k.k.d.. . . . . . . L k.k.k.k.. . Q.Q.Q.Q.P.. . k.k.k.k.k.k.k.k.k.n . . .                           ",
"                        . . . 9.k.k.k.k.k.& . . . 7 Q.Q.. . . . k.k.e.. . Q.Q.Q.Q.Q.. . k.q . . k.k.k.k.k.k.9.. . .                         ",
"                      . . . k.k.k.k.k.k.. . . > Q.Q.Q.Q.Q.F.. . . . . . ' Q.Q.Q.Q.Q.. . . . . . . k.k.k.k.k.k.h.. . .                       ",
"                    . . . k.k.k.k.k.k.k.. . Q.Q.7 . . . . S.Q.d . . . . Q.Q.Q.Q.Q.Q.Q.. . . Q.. . . k.k.k.k.k.k.k.. . .                     ",
"                  . . . h.k.k.k.k.k.k.k.. . Q.Q.. . . . . . . Q.Q.Q.Q.Q.Q.Q.Q.Q.Q.Q.Q.Q.Q.Q.Q.Q.. . 1.g.k.k.k.k.k.k.. . .                   ",
"                  . . 9.k.k.k.k.k.k.k.k.. . Q.Q.. . k.k.w . . . T.Q.Q.Q.Q.Q.Q.Q.Q.Q.Q.Q.Q.Q.Q.Q.$.. . k.k.k.k.k.k.k.8.. .                   ",
"                . . b k.k.k.k.k.k.k.k.k.. . Q.Q.. . 3.k.k.k.. . . Q.Q.Q.Q.Q.Q.Q.Q.Q.Q.Q.Q.Q.Q.Q.Q.. . k.k.k.k.k.k.k.k.i . .                 ",
"              . . . k.k.k.k.k.k.k.k.k.k.. . . Q.{ . . k.k.k.k.. . Q.Q.Q.Q.Q.Q.Q.Q.Q.Q.Q.Q.Q.Q.Q.Q.. . . 3 k.k.k.k.k.k.k.. . .               ",
"              . . a.k.k.k.k.k.k.k.k.k.k.k.. . 7 . . . k.k.k.k.. . P.Q.Q.Q.Q.Q.Q.Q.Q.Q.Q.Q.Q.Q.Q.Q.Q.. . . 2 k.k.k.k.k.k.k.. .               ",
"            . . l Q.k.k.k.k.k.k.k.k.k.k.k.( . . . . & k.k.k.k.1 . 7 Q.Q.Q.Q.Q.Q.Q.Q.Q.Q.Q.Q.Q.Q.Q.Q.Q.. . . k.k.k.k.k.k.k.i . .             ",
"            . . Q.Q.Q.k.k.k.k.k.k.k.k.k.k.k.. . k.k.k.k.k.k.w . . . Q.Q.Q.Q.Q.Q.Q.Q.Q.Q.Q.Q.Q.Q.Q.Q.Q.. . . k.k.k.k.k.k.k.k.. .             ",
"          . .  .Q.Q.. . k.k.k.k.k.k.k.k.k.k.k.k.k.k.k.k.C . . . . d Q.Q.Q.Q.Q.Q.Q.Q.Q.Q.Q.Q.Q.Q.Q.Q.Q.. . . k.k.k.k.k.k.k.k.Y . .           ",
"          . . Q.Q.. . . k.k.k.k.k.k.k.k.k.k.k.k.k.k.k.k.. . . Q.Q.Q.Q.Q.Q.Q.Q.Q.Q.Q.Q.Q.Q.Q.Q.Q.Q.Q.Q.. . . k.k.k.k.k.k.k.k.k.. .           ",
"        . . > Q.Q.. . 9.k.k.k.k.k.k.k.k.k.k.k.k.k.k.k.. . . Q.Q.Q.Q.Q.Q.Q.Q.Q.Q.Q.Q.Q.Q.Q.Q.Q.Q.Q.Q.Q.. . . k.k.k.k.k.k.k.k.k.& . .         ",
"        . . Q.Q.Q.. . k.k.k.k.k.k.k.k.k.k.k.k.k.k.k.P . . Q.Q.Q.Q.Q.Q.Q.Q.Q.Q.Q.Q.Q.Q.Q.Q.Q.Q.Q.Q.Q.Q.. . . k.k.k.k.k.k.k.k.k.k.. .         ",
"        . . Q.Q.Q.. . k.k.k.k.k.k.k.k.k.k.k.k.k.k.k.. . F.Q.Q.Q.Q.Q.Q.Q.Q.Q.Q.Q.Q.Q.Q.Q.Q.Q.Q.Q.Q.Q.Q.J . . k.k.k.k.k.k.k.k.k.k.. .         ",
"      . . z Q.Q.Q.. . k.k.k.k.k.k.k.k.k.k.k.k.k.k.k.. . P.Q.Q.Q.Q.Q.Q.Q.Q.Q.Q.Q.Q.Q.Q.Q.Q.Q.Q.Q.Q.Q.Q.Q.. . k.k.k.k.k.k.k.k.k.k.t . .       ",
"      . . Q.Q.Q.Q.. . k.k.k.k.k.k.k.k.k.k.k.k.k.k.k.. . @.Q.Q.Q.Q.Q.Q.Q.Q.Q.Q.Q.Q.Q.Q.Q.Q.Q.Q.Q.Q.Q.Q.Q.. . k.k.k.k.k.k.k.k.k.k.k.. .       ",
"      . . Q.Q.Q.Q.. . k.k.k.k.k.k.k.k.k.k.k.k.k.k.k.( . . Q.Q.Q.Q.Q.Q.Q.Q.Q.Q.Q.Q.Q.Q.Q.Q.Q.Q.Q.Q.Q.Q.Q.. . :.k.k.k.k.k.k.k.k.k.k.. .       ",
"      . . Q.Q.Q.Q.. . k.k.k.k.k.k.k.k.k.4.,.,.,.r.k.k.. . Q.Q.Q.Q.Q.Q.Q.Q.Q.Q.Q.Q.Q.Q.Q.Q.Q.Q.Q.Q.Q.Q.Q.` . . . . . . 2 8.k.k.k.k.. .       ",
"    . . . Q.Q.Q.Q.. . k.k.k.k.k.k.1.. . . . . . . k.k.. . Q.Q.Q.Q.Q.Q.Q.Q.Q.Q.Q.Q.Q.Q.Q.Q.Q.Q.Q.Q.Q.Q.Q.Q.: . . . . . . . k.k.k.k.. . .     ",
"    . . D Q.Q.Q.Q.. . & k.k.k.k.b . . . . . . . . . . . . ..Q.Q.Q.Q.Q.Q.Q.Q.Q.Q.Q.Q.Q.Q.Q.Q.Q.Q.Q.Q.Q.Q.Q.Q.Q.Q.Q.Q.m.. . k.k.k.k.m . .     ",
"    . . *.Q.Q.Q.Q.Q.. . k.k.k.k.e.. . Q.Q.Q.Q.Q.. . . . . Q.Q.Q.Q.Q.Q.Q.Q.Q.Q.Q.Q.Q.Q.Q.Q.Q.Q.Q.Q.Q.Q.Q.Q.Q.Q.Q.Q.Q.Q.. . k.k.k.k.^ . .     ",
"    . . M.Q.Q.Q.Q.Q.. . . k.k.k.k.. . Q.Q.Q.Q.Q.6 . @.Q.Q.Q.Q.Q.Q.Q.Q.Q.Q.Q.Q.Q.Q.Q.Q.Q.Q.Q.Q.Q.Q.Q.Q.Q.Q.Q.Q.Q.Q.Q.} . . k.k.k.g.6.. .     ",
"    . . T.Q.Q.Q.Q.Q.Q.. . >.k.k.k.. . . . . Q.Q.Q.Q.Q.Q.Q.Q.Q.Q.Q.Q.Q.Q.Q.Q.Q.Q.Q.Q.Q.Q.Q.Q.Q.Q.Q.Q.Q.Q.Q.Q.Q.Q.Q.Q.. . ! k.k.k.g.u.. .     ",
"    . . T.Q.Q.Q.Q.Q.Q.@.. . k.k.k.r.. . . . . . Q.Q.Q.Q.Q.Q.Q.Q.Q.Q.Q.Q.Q.Q.Q.Q.Q.Q.Q.Q.Q.Q.Q.Q.Q.Q.Q.Q.Q.Q.Q.Q.Q.Q.. . k.k.k.k.g.p.. .     ",
"    . . C.Q.Q.Q.Q.Q.Q.Q.. . . ! k.k.k.k.k.V . . Z.Q.Q.Q.Q.Q.Q.Q.Q.Q.Q.Q.Q.Q.Q.Q.Q.Q.Q.Q.Q.Q.Q.Q.Q.Q.Q.Q.Q.Q.Q.Q.Q.Q.. . q k.k.k.k.5.. .     ",
"    . . *.Q.Q.Q.Q.Q.Q.Q.Q.. . . . k.k.k.k.k.V . . Q.Q.Q.Q.Q.Q.Q.Q.Q.. : Q.Q.Q.Q.Q.Q.Q.Q.Q.Q.Q.Q.Q.Q.Q.Q.Q.Q.Q.Q.Q.Q.G.. . k.k.k.k.~ . .     ",
"    . . A Q.Q.Q.Q.Q.Q.Q.Q.Q.$.. . . . . . 2.k.. . . . Q.Q.Q.Q.Q.. . . . . J.Q.Q.Q.Q.Q.Q.Q.Q.Q.Q.Q.Q.Q.Q.Q.Q.Q.Q.Q.Q.Q.. . . k.k.k.m . .     ",
"    . . . Q.Q.Q.Q.Q.Q.Q.Q.Q.Q.Q.. . . . . . ) k.. . . Q.Q.Q.. . . . . . . . . . . . Q.Q.Q.Q.Q.Q.Q.Q.Q.Q.Q.Q.Q.Q.Q.Q.Q.Q.. . 9.k.k.. . .     ",
"      . . Q.Q.Q.Q.Q.Q.Q.Q.Q.Q.Q.Q.v.z.x.d . . . . . } Q.Q.. . . . k.k.k.i . . . . . . G Q.Q.Q.Q.Q.Q.Q.Q.Q.Q.Q.Q.Q.Q.Q.Q.l . . k.h.. .       ",
"      . . Q.Q.Q.Q.Q.Q.Q.Q.Q.Q.Q.Q.Q.Q.Q.Q.9 . . . Q.Q.Q.. . . k.k.k.k.k.k.k.1 1 1 . . . . P.P.P.P.P.U.Q.Q.Q.Q.Q.Q.Q.Q.Q.Q.. _ h.h.. .       ",
"      . . Q.Q.Q.Q.Q.Q.Q.Q.Q.Q.Q.Q.Q.Q.Q.Q.Q.H ..Q.Q.Q.. . . k.k.k.k.k.k.k.k.k.k.k.k.6.. . . . . . . . ] Q.Q.Q.Q.Q.Q.Q.Q.Q.Q.Q.Q.Q.. .       ",
"      . . h Q.Q.Q.Q.Q.Q.Q.Q.Q.Q.Q.Q.Q.Q.Q.Q.Q.Q.Q.Q.v.. . k.k.k.k.k.k.k.k.k.k.k.k.k.k.k.. . . . . . . . Q.Q.Q.Q.Q.Q.Q.Q.Q.Q.Q.Q.z . .       ",
"        . . Q.Q.Q.Q.Q.Q.Q.Q.Q.Q.Q.Q.Q.Q.Q.Q.Q.Q.Q.Q.. . L k.k.k.k.k.k.k.k.k.k.k.k.k.k.k.k.k.k.k.k.k.. . . Q.Q.Q.Q.Q.Q.Q.Q.Q.Q.Q.. .         ",
"        . . Q.Q.Q.Q.Q.Q.Q.Q.Q.Q.Q.Q.Q.Q.Q.Q.Q.Q.Q.. . . k.k.k.k.k.k.k.k.k.k.k.k.k.k.k.k.k.k.k.k.k.k.k.. . =.Q.Q.Q.Q.Q.Q.Q.Q.Q.Q.. .         ",
"        . . > Q.Q.Q.Q.Q.Q.Q.Q.Q.Q.Q.Q.Q.Q.Q.Q.Q.Q.. . . k.k.k.k.k.k.k.k.k.k.k.k.k.k.k.k.k.k.k.k.k.k.k.. . n.Q.Q.Q.Q.Q.Q.Q.Q.Q., . .         ",
"          . . Q.Q.Q.Q.Q.Q.Q.Q.Q.Q.Q.Q.Q.Q.Q.Q.Q.Q.Q.. . % k.k.k.k.k.k.k.k.k.k.k.k.k.k.k.k.k.k.k.k.k.T . . Q.Q.Q.Q.Q.Q.Q.Q.Q.Q.. .           ",
"          . . ..Q.Q.Q.Q.Q.Q.Q.Q.Q.Q.Q.Q.Q.Q.Q.Q.Q.Q.J.. . g.k.k.k.k.k.k.k.k.k.k.k.k.k.k.k.k.k.k.k.k.. . z.Q.Q.Q.Q.Q.Q.Q.Q.Q.... .           ",
"            . . Q.Q.Q.Q.Q.Q.Q.Q.Q.Q.Q.Q.Q.Q.Q.Q.Q.Q.Q.: . . f.k.k.k.k.k.k.k.k.k.k.k.k.k.k.k.k.k.k.T . . Q.Q.Q.Q.Q.Q.Q.Q.Q.Q.. .             ",
"            . . l Q.Q.Q.Q.Q.Q.Q.Q.Q.Q.Q.Q.Q.Q.Q.Q.Q.Q.Q.. . . k.k.k.k.k.k.k.k.k.k.k.k.k.k.k.k.k.. . . n.Q.Q.Q.Q.Q.Q.Q.Q.Q.c . .             ",
"              . . Q.Q.Q.Q.Q.Q.Q.Q.Q.Q.Q.Q.Q.Q.Q.Q.Q.Q.Q.Q.. . . k.k.k.k.k.k.k.k.k.k.k.k.k.k.:.. . . ..Q.Q.Q.Q.Q.Q.Q.Q.Q.Q.. .               ",
"              . . . Q.Q.Q.Q.Q.Q.Q.Q.Q.Q.Q.Q.Q.Q.Q.Q.Q.Q.Q.Q.. . . Q Q y.k.k.k.k.k.k.k.k.k.k.. . . Q.Q.Q.Q.Q.Q.Q.Q.Q.Q.Q.. . .               ",
"                . . z Q.Q.Q.Q.Q.Q.Q.Q.Q.Q.Q.Q.Q.Q.Q.Q.Q.Q.Q.Q.. . . . . k.k.k.k.k.k.k.k.k.k.. . Q.Q.Q.Q.Q.Q.Q.Q.Q.Q.Q.z . .                 ",
"                  . . Z.Q.Q.Q.Q.Q.Q.Q.Q.Q.Q.Q.Q.Q.Q.Q.Q.Q.Q.Q.Q.6 . . . g.k.k.k.k.k.k.k.k.k.. . Q.Q.Q.Q.Q.Q.Q.Q.Q.Q.Z.. .                   ",
"                  . . . Q.Q.Q.Q.Q.Q.Q.Q.Q.Q.Q.Q.Q.Q.Q.Q.Q.Q.Q.Q.Q.Q.. . s.k.k.k.k.k.k.k.g.W . . Q.Q.Q.Q.Q.Q.Q.Q.Q.Q.. . .                   ",
"                    . . . Q.Q.Q.Q.Q.Q.Q.Q.Q.Q.Q.Q.Q.Q.Q.Q.Q.Q.Q.Q.Q.. . Y k.k.k.k.k.k.k.. . . . Q.Q.Q.Q.Q.Q.Q.Q.Q.. . .                     ",
"                      . . . Q.Q.Q.Q.Q.Q.Q.Q.Q.Q.Q.Q.Q.Q.Q.Q.Q.Q.Q.Q.Z . . k.k.k.k.k.,.. . . z.Q.Q.Q.Q.Q.Q.Q.Q.Q.. . .                       ",
"                        . . . Z.Q.Q.Q.Q.Q.Q.Q.Q.Q.Q.Q.Q.Q.Q.Q.Q.Q.Q.T.. . k.k.k.k.. . . . Q.Q.Q.Q.Q.Q.Q.Q.Q.Z.. . .                         ",
"                          . . . z Q.Q.Q.Q.Q.Q.Q.Q.Q.Q.Q.Q.Q.Q.Q.Q.Q.Q.. . k.k.k.. . . @.Q.Q.Q.Q.Q.Q.Q.Q.Q.z . . .                           ",
"                            . . . . Q.Q.Q.Q.Q.Q.Q.Q.Q.Q.Q.Q.Q.Q.Q.Q.Q.. . . . . . . Q.Q.Q.Q.Q.Q.Q.Q.Q.Q.. . . .                             ",
"                                . . . z Q.Q.Q.Q.Q.Q.Q.Q.Q.Q.Q.Q.Q.Q.Q.. . . . . . Q.Q.Q.Q.Q.Q.Q.Q.Q.c . . .                                 ",
"                                  . . . . | Q.Q.Q.Q.Q.Q.Q.Q.Q.Q.Q.Q.Q.Q.Q.Q.Q.Q.Q.Q.Q.Q.Q.Q.Q.Q.... . . .                                   ",
"                                      . . . . > Q.Q.Q.Q.Q.Q.Q.Q.Q.Q.Q.Q.Q.Q.Q.Q.Q.Q.Q.Q.Q.Q.> . . . .                                       ",
"                                          . . . . . d Q.Q.Q.Q.Q.Q.Q.Q.Q.Q.Q.Q.Q.Q.Q.Q.z . . . . .                                           ",
"                                              . . . . . . . . A $.M.P.P.B.$.S . . . . . . . .                                               ",
"                                                    . . . . . . . . . . . . . . . . . .                                                     ",
"                                                            . . . . . . . . . .                                                             ",
"                                                                                                                                            ",
"                                                                                                                                            "
};
