/* XPM */
static char *f70482751938488abee520ab5358951cP9M7g46QzW3rMVar[] = {
/* columns rows colors chars-per-pixel */
"70 70 123 2 ",
"   c None",
".  c #433756",
"X  c #443756",
"o  c #443855",
"O  c #443856",
"+  c #443857",
"@  c #463857",
"#  c #473857",
"$  c #764060",
"%  c #7C4261",
"&  c #864363",
"*  c #FF4F4F",
"=  c #FF5050",
"-  c #FF5151",
";  c #FF5152",
":  c #FF5252",
">  c #FE5353",
",  c #FC5758",
"<  c #FE5759",
"1  c #FD5C5C",
"2  c #DD406A",
"3  c #DE406A",
"4  c #DE416B",
"5  c #DF426B",
"6  c #E0426B",
"7  c #E0426C",
"8  c #E1426C",
"9  c #E1436C",
"0  c #E2436C",
"q  c #E3446D",
"w  c #E4456D",
"e  c #E4456E",
"r  c #E5456E",
"t  c #E7476F",
"y  c #E84870",
"u  c #E94870",
"i  c #EB4A71",
"p  c #EC4A72",
"a  c #EF4C73",
"s  c #F04C74",
"d  c #F24F75",
"f  c #F34F75",
"g  c #F44F75",
"h  c #F45076",
"j  c #F55076",
"k  c #F65177",
"l  c #F75277",
"z  c #F85277",
"x  c #F95278",
"c  c #FA5378",
"v  c #FA5479",
"b  c #FB5479",
"n  c #FC557A",
"m  c #FD567A",
"M  c #FE567A",
"N  c #FF567A",
"B  c #FF577A",
"V  c #FE567B",
"C  c #FF567B",
"Z  c #FE577B",
"A  c #FF577B",
"S  c #FF567C",
"D  c #FF577C",
"F  c #FF587B",
"G  c #F9696A",
"H  c #FA686A",
"J  c #FA696A",
"K  c #F77275",
"L  c #F87073",
"P  c #F87074",
"I  c #F57B7F",
"U  c #FF7094",
"Y  c #FF7195",
"T  c #FF7096",
"R  c #FF7196",
"E  c #FF7197",
"W  c #FF7297",
"Q  c #FF7398",
"!  c #5C99F2",
"~  c #5F9BF2",
"^  c #609BF2",
"/  c #6DA4F3",
"(  c #76A9F3",
")  c #76A9F4",
"_  c #F3858A",
"`  c #F3878C",
"'  c #E8B3BD",
"]  c #ACB2C6",
"[  c #B6BED0",
"{  c #8CB7F5",
"}  c #95BDF5",
"|  c #98BFF5",
" . c #99BFF5",
".. c #E6BBC5",
"X. c #E7BDC8",
"o. c #E7BEC8",
"O. c #AFCDF6",
"+. c #B4D0F7",
"@. c #B4D1F7",
"#. c #B6D2F7",
"$. c #E3C9D5",
"%. c #E3CBD7",
"&. c #DFDDEB",
"*. c #C0D9F7",
"=. c #CADFF8",
"-. c #CBDFF8",
";. c #E0D7E4",
":. c #DEE3F1",
">. c #D9E7F5",
",. c #DDE7F6",
"<. c #D0E2F8",
"1. c #DBE9F8",
"2. c #DAE8F9",
"3. c #DBE9F9",
"4. c #DBEAF9",
"5. c #DCE9F8",
"6. c #DCE9F9",
"7. c #DCEAF8",
"8. c #DCEAF9",
"9. c #DDEBF9",
"0. c #DCE9FA",
"q. c #DCEAFA",
"w. c #DEEBFA",
/* pixels */
"                                                                                                                                            ",
"                                                                                                                                            ",
"                                                                                                                                            ",
"                                                                                                                                            ",
"                                                                                                                                            ",
"                                                                                                                                            ",
"                                                                                                                                            ",
"                                                                                                                                            ",
"                                                                                                                          W                 ",
"                                                                                                                        W W W               ",
"                                                                                                                        W W W               ",
"                                                                                                    U W W W                                 ",
"                                                                                                    W W W U U                       A A A   ",
"                                                                                                    U W U W W                   A A A A A   ",
"                                                                                                    W U W W                   A A A A A A   ",
"                                                                                                                            A A A A A A A   ",
"                                                                                                                          A A A A A A A A   ",
"                                                                                                                        F A A A A A A A A   ",
"                                                                                                                      D A A A A A A A A A   ",
"                                                                                                                      A A A A A A A A A A   ",
"                                                                                                                    A A A A A A F A A A A   ",
"                                                                      = = = = = = =             W W Q               A A A A A A z k n A A   ",
"                                                                  = = = = = = = = =             U U W               A A A A c t 3 3 q A A   ",
"                                                                = = = = = = = = =               Q W                 A A A A t 3 a A A A A   ",
"                                                            = = = = = = = = = = *                                 A A A A f 3 a A A A A A   ",
"                                                          = = = = = = = = = = =                                   A A A A f 3 D A A A A A   ",
"                                                      .._ ` _ I K J > = = = = =                                   A A A D f 3 f A A A A A   ",
"                      w.8.4.8.8.8.8.8.8.8.8.8.8.8.8.8.8.8.8.8.:.&.;.%.$.$.$.$.,.                                  A A A A n q l A A A A A   ",
"                  8.8.8.8.8.8.8.8.8.8.8.8.8.8.8.8.8.8.8.8.8.8.8.8.8.8.8.8.8.8.8.8.                                A A A A A A A A A A A A   ",
"              < o.8.8.8.8.8.8.8.8.8.8.8.8.8.8.8.8.8.8.8.8.8.8.8.8.8.8.8.8.8.8.8.8.        X @                 A A A A A A A A A A A A A A   ",
"            = = ' 8.8.8.8.8.8.4.4.8.8.8.8.8.8.8.8.8.8.8.8.8.8.8.8.8.8.8.8.8.8.8.8.>.  O O O O O         A A A A A A A A A A A A A A A A A   ",
"          = = = ' 8.8.8.8.8.#.| { | +.8.8.8.8.8.8.8.8.8.8.8.8.8.8.8.8.8.8.8.8.8.8.[ O O O O O % A A A A A A A A A A A A A A A A A A A A A   ",
"      J = = = = ' 8.8.8.8.} ^ ! ! ! ^ | 8.8.8.8.8.8.8.8.8.8.8.8.8.8.8.8.8.8.8.8.8.] O O O O O & D A A A D F A A A A A A A q n F A A A A A   ",
"    P = = = = = ' 8.8.8.-./ ! ! ! ! ! ( <.8.8.8.8.8.8.8.8.8.8.8.8.8.8.8.8.8.8.8.8.] O O O O O & A A A A D D A A A A A A 3 7 c A A A A A A   ",
"  1 = = = = = = ' 8.8.8.O.! ! ! ! ! ! ! *.8.8.8.8.8.8.8.8.8.8.8.8.8.8.8.8.8.8.8.8.] O O O O O & D q t q q e q q q h D A 3 y A A A A A A A   ",
"  1 = = = = = = ' 8.8.4.O.! ! ! ! ! ! ! *.8.8.8.8.8.8.8.8.8.8.8.8.8.8.8.8.8.8.8.8.] O O O O O & D t q q q t q t t f A A q 7 k A A A A A A   ",
"    P = = = = = ' 8.8.8.-./ ! ! ! ! ! ) <.8.8.8.8.8.8.8.8.8.8.8.8.8.8.8.8.8.8.8.8.] O O O O O & A A A A A A A A A A A A k 3 3 y k F A A A   ",
"      J = = = = ' 8.8.8.8.} ^ ! ! ! ! | 8.8.8.8.8.8.8.8.8.8.8.8.8.8.8.8.8.8.8.8.8.] O O O O O & A A A A A A A A A A A A F k q 5 g A A A A   ",
"          = = = ' 8.8.8.8.8.+. .{  .+.8.8.8.8.8.8.8.8.8.8.8.8.8.8.8.8.8.8.8.8.8.8.[ O O O O O $ A A A A A A A A A A A A A A F F A A A A A   ",
"            = = ' 8.8.8.8.4.w.4.4.8.8.8.8.8.8.8.8.8.8.8.8.8.8.8.8.8.8.8.8.8.8.8.8.>.  O O O O @         A A A A A A A A A A A F A A A A A   ",
"              < o.8.8.8.8.8.8.8.8.8.8.8.8.8.8.8.8.8.8.8.8.8.8.8.8.8.8.8.8.8.8.8.8.        O .                 A A A A A A A A A A A A A A   ",
"                  8.8.8.8.8.8.8.8.8.8.8.8.8.8.8.8.8.8.8.8.8.8.8.8.8.8.8.8.8.8.8.8.                                A A A A A A A A A A A A   ",
"                      8.8.8.w.8.8.8.8.8.8.8.8.8.8.8.8.8.8.8.8.:.&.;.%.$.$.$.$.,.                                  A A A A A A A A A A A A   ",
"                                                        ` ` _ I K J > = = = = *                                   A A A A A A A a y A A A   ",
"                                                          = = = = = = = = = = =                                   A A A A A c 3 3 7 A A A   ",
"                                                            = = = = = = = = = = =                                 A A A A c 7 7 a z A A A   ",
"                                                                = = = = = = = = =                                   A A A f 3 y A A A A A   ",
"                                                                  = = = = = = = = =               W W               A A A k 3 t A A A A A   ",
"                                                                      = = = = = = =             W U W U             A A A A 7 t A A A A A   ",
"                                                                                                W W U W             A A A A A A A A A A A   ",
"                                                                                                  Q W                 A A A A A A A A A A   ",
"                                                                                                                      A A A A A A A A A A   ",
"                                                                                                                          A A A A A A A A   ",
"                                                                                                                          A A A A A A A A   ",
"                                                                                                                            A A A A A A A   ",
"                                                                                                              W W W         A A A A A A A   ",
"                                                                                                              W W U           D F F F A A   ",
"                                                                                                                                    F F D   ",
"                                                                                                                                            ",
"                                                                                                                                            ",
"                                                                                                                                            ",
"                                                                                                                                            ",
"                                                                                                                                            ",
"                                                                                                                                            ",
"                                                                                                                                            ",
"                                                                                                                                            ",
"                                                                                                                                            ",
"                                                                                                                                            ",
"                                                                                                                                            ",
"                                                                                                                                            "
};
