/* XPM */
static char *_a8064812c8345f4806d9ad4ad7c43c5fCkzwcWFJaNTWSFB[] = {
/* columns rows colors chars-per-pixel */
"70 70 76 1 ",
"  c None",
". c #000000",
"X c #05040A",
"o c #08060C",
"O c #090711",
"+ c #0B0915",
"@ c #0D0B1A",
"# c #130C14",
"$ c #1C121D",
"% c #120E24",
"& c #141027",
"* c #15112B",
"= c #18132F",
"- c #1A1534",
"; c #1D1739",
": c #1F193D",
"> c #251726",
", c #2B1B2D",
"< c #2E1D30",
"1 c #20193F",
"2 c #362139",
"3 c #38223B",
"4 c #221B43",
"5 c #271E4C",
"6 c #281F4E",
"7 c #28204F",
"8 c #2A2154",
"9 c #2D245A",
"0 c #312761",
"q c #332865",
"w c #362B6C",
"e c #382C6F",
"r c #392E72",
"t c #3F327C",
"y c #462B49",
"u c #533357",
"i c #553458",
"p c #5E3A62",
"a c #633D66",
"s c #653E69",
"d c #6E4473",
"f c #744879",
"g c #7A4B7F",
"h c #433584",
"j c #46378A",
"k c #47388D",
"l c #48388E",
"z c #4A3B93",
"x c #4E3D99",
"c c #503F9D",
"v c #51409F",
"b c #7D4D83",
"n c #5241A2",
"m c #5644AB",
"M c #5845AE",
"N c #5A47B1",
"B c #5C49B6",
"V c #5F4BBC",
"C c #825087",
"Z c #86528B",
"A c #8C5691",
"S c #8F5895",
"D c #915996",
"F c #965D9C",
"G c #985E9E",
"H c #9B5FA1",
"J c #9E61A4",
"K c #A566AC",
"L c #A867AF",
"P c #AD6AB4",
"I c #B06DB7",
"U c #B26EBA",
"Y c #B570BD",
"T c #BC74C4",
"R c #C176C9",
"E c #C378CB",
/* pixels */
"                                                                      ",
"                                                                      ",
"                ...                                    ......         ",
"                ...           ..                  .............       ",
"                              ..                .......2ATUs.....     ",
"        ..                                   ......fEEEEEEEEEEb...    ",
"        ..                                  ....#EEEEEEEEEEEEEEE..    ",
"        ..                  ..................AEREEEEEEEEEEEEEEEg..   ",
"        ..               ....................GEEEEEEEEYSREEEEEEEE..   ",
"     .......          ......XVq..+VVVVVVV......>EEEE.......EEEEEE...  ",
"     .......         ....;VVVw..@VVVVVVV;..:1....ZE  .......EEEEEs..  ",
"        ..         ....cVVVV0..+VVVVVVV1..1VVVv....       ...EEERU..  ",
"        ..        ...eVVVVV0..@VVVVVVV=..=VVVVVVr...       ..EEEET..  ",
"        ..      ....VVVVVVe..@VVVVVVV;..;VVVVVVVVV....     ..UEEEA..  ",
"               ...*VVVVVVk..+VVVVVVV4..4VVVVVVVVVVV*...    ..bEEE2..  ",
"              ...lVVVVVVVV;@VVVVVVV-..-VVVVVVVV+.VVVl...   ..LEEE...  ",
"  ..         ...MVVVVVVVVVVVVVVVVV-..;VVVVVVVV+..9VVVM...  ..EEEE..   ",
"  ..         ..lVVVVVVw.VVVVVVVVV4..4VVVVVVVVo..eVVVVVj..  ..EEEE..   ",
"  ..        ..%VVVVVV0..@VVVVVVV-..-VVVVVVVVX..zVVVVVVVX.. ..EEEA..   ",
"            ..VVVVVVw..@VVVVVVV-..-VVVVVVVV...zVVVVVVV%.....aEEE..    ",
"            VVVVVVVe..@VVVVVVV4..4VVVVVVVV...xVVVVVVV*..8...EEEE..    ",
"           VVVVVVV9..@VVVVVVV;..;VVVVVVVV...MVVVVVVV=..8V...EEE>..    ",
"    ...  ...VVVVVw..@VVVVVVV=..-VVVVVVVV...BVVVVVVV%..4VV..TEEE..     ",
"    ...  ..nVVVVe..@VVVVVVV1..:VVVVVVVV...BVVVVVVV*..8VVO..EEEG..     ",
"         ..VVVV0..@VVVVVVV:..:VVVVVVVV...VVVVVVVV=..8VVV..IEEE...     ",
"        ..4VVVq..+VVVVVVV*..=VVVVVVVV...VVVVVVVV%..4VVV...EEEH..      ",
"        ..VVVe..@VVVVVVV4..:VVVVVVVV...VVVVVVVV%..7VVVV..EEEE...  ..  ",
"        ..VV0..@VVVVVVVVV.:VVVVVVVV...VVVVVVVVVh.8VVVV...EEEu..   ..  ",
"       ..oVq..+VVVVVVVVVVVVVVVVVVV...VVVVVVVVVVVMVVVVO..EEEE...       ",
"       ..Ve..@VVVVVVV-.VVVVVVVVVV...VVVVVVVV@.VVVVVVV..iEEEX...       ",
"       ..q..@VVVVVVV:..4VVVVVVVV...VVVVVVVV=..9VVVVV...EEEE....       ",
"       ....@VVVVVVV-..;VVVVVVVV...VVVVVVVVVw.8VVVVV...EEEE.....       ",
"       ...@VVVVVVV-..:VVVVVVVV...VVVVVVVVBVVhVVVVVt..JEEE$..V..       ",
"       ..+VVVVVVV1..4VVVVVVVV...VVVVVVVV*.NVVVVVVV..oEEEE..MV..       ",
"       ..VVVVVVV-..;VVVVVVVV...VVVVVVVV%..8VVVVVV...EEEE..XVV..       ",
"       ..VVVVVV-..:VVVVVVVV...VVVVVVVV@..5VVVVVV...EEEE...VVV..       ",
"       ..VVVVV:..4VVVVVVVV...VVVVVVVV*..9VVVVVV...REEEJ..VVVV..       ",
"       ..VVVV-..:VVVVVVVV...VVVVVVVV*..9VVVVVV%..KEEEE..qVVVV..       ",
"       ..VVV=..;VVVVVVVV...VVVVVVVV@..5VVVVVVr..yEEEE...VVVVn..       ",
"       ..VVV..4VVVVVVVV...VVVVVVVV%..9VVVVVVn..$EEEE...VVVVl...       ",
"  ..   ..VVVV4VVVVVVVV...VVVVVVVV*..9VVVVVVN...EEEEX..VVVVz....       ",
"  ..   ..XVVVVVVVVVVB...VVVVVVVV%..5VVVVVVB...EEEE2..VVVVn.....       ",
"  ..    ..VVVVVVVVVn...VVVVVVVV%..8VVVVVVB...EEEED..jVVVz..o..        ",
"        ..VVVVVVVVx...VVVVVVVV*..9VVVVVVN...EEEEU..;VVVl..oV..        ",
"       E..:VVVVVVj...VVVVVVVV@..8VVVVVVv...EEEEE..XVVVn...V1..        ",
"       EF..VVVVVt..XVVVVVVVVV..8VVVVVVe...EEEER...VVVz..XVV..         ",
"     ..GE..cVVV0..XVVVVVVVVVVV9VVVVVV%..XEEEER...VVVk..oVVn..         ",
"     ..ER,..VV8..+VVVVVVVV%XVVVVVVVV...$EEEEE...VVVc..XVVV...         ",
"    ..#EEE..r4..%VVVVVVVV%..5VVVVVV...uEEEEI...VVVx...VVVh..  ...     ",
"    ..EEEE.....;VVVVVVVV*..8VVVVVV...PEEEEZ..XVVVj..XVVVV..   ...     ",
"    ..EEEp....5VVVVVVVV*..6VVVVVt...EEEEE,..XVVVx...VVVV...           ",
"   ..gEEE.. ..*VVVVVVV%..5VVVVV....EEEEEX..8VVVc..XVVVV-..            ",
"   ..EEEE..  ..jVVVVV=..8VVVVV...#EEEEE...xVVVk..oVVVVz..             ",
"   ..EEEE..  ...mVVV*..8VVVV+...UEEEEE...VVVVVV.XVVVVB...             ",
"  ...EEET..   ...hV%..4VVVV....EEEEEL...VVVVVVVVVVVVz...              ",
"  ..2EEED..    ...X..8VVV....bEEEEEX...VVVVl-VVVVVV=...               ",
"  ..SEEEE..     ....8VVO....EEEEEE...rVVVVz..;VVVV....                ",
"  ..TEEEE..       ........EEEEEE3...VVVVVn...VVVt...             ..   ",
"  ..UREEE...       .....TEEEEEE....VVVVVl..XVVn....              ..   ",
"  ..dEEEEE............EEEEEEE#...MVVVVVl..XV:....        ..           ",
"  ...EEEEEE........pEEEEERES....VVVVVVn.........         ..           ",
"   ..EEEEEEEEESTEEEEEEEEEP....VVV............            ..           ",
"   ..bEEEEEEEEEEEEEEEEEK....     .........             ......         ",
"    ..EEEEEEEEEEEEEEE$.....                   ..       ......         ",
"    ...ZEEEEEEEEEEd......                     ..       ......         ",
"     .....bREA<.......                        ..         ..           ",
"       .............       ...                           ..           ",
"         .......           ...                           ..           ",
"                                                                      ",
"                                                                      "
};
