/* XPM */
static char *ea2f3aeb148f43fae6903ecec803b4ffr8gTpb5hgA3xto2d[] = {
/* columns rows colors chars-per-pixel */
"70 70 41 1 ",
"  c None",
". c #423555",
"X c #DE3E6A",
"o c #FF4E4E",
"O c #FF4F4F",
"+ c #FF5050",
"@ c #FE5555",
"# c #FE5556",
"$ c #E2416C",
"% c #EA4670",
"& c #EC4872",
"* c #F24D75",
"= c #F44E76",
"- c #FA527A",
"; c #FC547B",
": c #FD557B",
"> c #FE557B",
", c #FF557C",
"< c #FE567C",
"1 c #FF567C",
"2 c #FF567D",
"3 c #FF577D",
"4 c #FB6163",
"5 c #FA6264",
"6 c #F9696C",
"7 c #FF7197",
"8 c #FF7296",
"9 c #FF7297",
"0 c #5C9AF2",
"q c #5E9BF2",
"w c #5F9CF2",
"e c #609CF2",
"r c #CEE1F8",
"t c #CEE2F8",
"y c #DBE9F7",
"u c #DAE9F9",
"i c #DCEBF8",
"p c #DDEAF9",
"a c #DDEBF9",
"s c #DEEBF9",
"d c #DDEBFA",
/* pixels */
"                                                                      ",
"                                                                      ",
"                                                                      ",
"                                                                      ",
"                                                                      ",
"                                                                      ",
"                                                                      ",
"                                                                      ",
"                                                                      ",
"                                                                      ",
"                                                                      ",
"                                                                      ",
" 1111        9                                                        ",
" 11111      999                                                       ",
" 1111111    999                                                       ",
" 1111111                                                              ",
" 11111111                                                             ",
" 111111111                                                            ",
" 1111111111                                                           ",
" 1111111111       999                                                 ",
" 11111111111      9999                                                ",
" 11111XX1111      9999      OOOOOOO                                   ",
" 11111%X1111       99       OOOOOOOO                                  ",
" 11111:X1111                 OOOOOOO++                                ",
" 11111XX11111                OOOOOOOOOOO                              ",
" 111XXX111111                 OOOOOOOOOOO                             ",
" 111:11111111                 +OOOOOOOOOOOO   aaaaaaa                 ",
" 111111111111                 aaaaaaaaaaaaaaaaaaaaaaaaaaaa            ",
" 111111111111                aaaaaaaaaaaaaaaaaaaaaaaaaaaaaaaa         ",
" 1111111111111        ..    aaaaaaaaaaaaaaaaaaaaaaaaaaaaaaaaaa#       ",
" 11111111111111111    ..... aaaaaaaaaaaaaaaaaaaaaaaaaaaaaaaaaaOO      ",
" 111111111111111111111......yaaaaaaaaaaaaaaaaaaaaaaaqqqaaaaaaaOOO5    ",
" 11111XX11111111111111......yaaaaaaaaaaaaaaaaaaaaauq0000raaaaa++OOO   ",
" 11111XXX1111111111111......yaaaaaaaaaaaaaaaaaaaaa0000000aaaaaOOOOOO  ",
" 1111111XX11*XXXXXXXX1......yaaaaaaaaaaaaaaaaaaaaa0000000aaaaaOOOOOO6 ",
" 1111111XX11$XXXXXXXX1......yaaaaaaaaaaaaaaaaaaaaa0000000aaaaaOOOOOO6 ",
" 1111111XX111111111111......yaaaaaaaaaaaaaaaaaaaaa0000000aaaaaOOOOOO  ",
" 1111111X1111111111111......yaaaaaaaaaaaaaaaaaaaaau00000raaaaaOOOOO   ",
" 111111111111111111111......yaaaaaaaaaaaaaaaaaaaaaaaqqqaaaaaaaOO+4    ",
" 11111111111111111    ..... aaaaaaaaaaaaaaaaaaaaaaaaaaaaaaaaaaOO      ",
" 1111111111111        ..    aaaaaaaaaaaaaaaaaaaaaaaaaaaaaaaaaa#       ",
" 111111111111                aaaaaaaaaaaaaaaaaaaaaaaaaaaaaaaa         ",
" 111111X11111                 aaaaaaaaaaaaaaaaaaaaaaaaaaaa            ",
" 11111:X11111                 OOOOOOOOOOOOO   aaaaaaa                 ",
" 111111X=1111                 OOOOOOOOOOO                             ",
" 11111-X11111                OOOOOOOOOOO                              ",
" 1111&XX1111        9        OOOOOOOOO                                ",
" 11XXXX11111       999      OOOOOOOOO                                 ",
" 11111111111       999      OOOOOOO                                   ",
" 11111111111                                                          ",
" 1111111111                                                           ",
" 1111111111                                                           ",
" 111111111                                                            ",
" 11111111                                                             ",
" 1111111         9                                                    ",
" 111111         9999                                                  ",
" 11111          9999                                                  ",
" 1111           9999                                                  ",
"                9999                                                  ",
"       999                                                            ",
"       999                                                            ",
"        9                                                             ",
"                                                                      ",
"                                                                      ",
"                                                                      ",
"                                                                      ",
"                                                                      ",
"                                                                      ",
"                                                                      ",
"                                                                      "
};
