/* XPM */
static char *_3d00d7956724d71dd4bf9d1edec5299PXbrQh1u1YkUHMyp[] = {
/* columns rows colors chars-per-pixel */
"70 70 175 2 ",
"   c #00020E",
".  c #000515",
"X  c #010A16",
"o  c #0A0E17",
"O  c #01051D",
"+  c #010C1B",
"@  c #08091F",
"#  c #03111E",
"$  c #09111E",
"%  c #010422",
"&  c #010C23",
"*  c #0A0C25",
"=  c #030629",
"-  c #010C29",
";  c #0A0C2B",
":  c #011223",
">  c #091424",
",  c #011D21",
"<  c #0D1A26",
"1  c #01142B",
"2  c #0A142B",
"3  c #03182F",
"4  c #0C1A2B",
"5  c #101826",
"6  c #11152C",
"7  c #111D2C",
"8  c #020632",
"9  c #050E30",
"0  c #0B0A30",
"q  c #031631",
"w  c #0C1532",
"e  c #041A32",
"r  c #0A1C34",
"t  c #041D3A",
"y  c #0B1D3A",
"u  c #131633",
"i  c #1A1C32",
"p  c #10113B",
"a  c #121D3A",
"s  c #1C1E3C",
"d  c #15212F",
"f  c #062034",
"g  c #0E2235",
"h  c #04223E",
"j  c #0B223B",
"k  c #132233",
"l  c #1C2432",
"z  c #1D2935",
"x  c #15243B",
"c  c #19233A",
"v  c #1E2A3A",
"b  c #202D36",
"n  c #232D3C",
"m  c #23343D",
"M  c #28313F",
"N  c #052442",
"B  c #0A2644",
"V  c #0E2847",
"C  c #072A4A",
"Z  c #0A2B4B",
"A  c #132643",
"S  c #192640",
"D  c #152A45",
"F  c #1D2C44",
"G  c #152D4C",
"H  c #192D4B",
"J  c #1D3046",
"K  c #18304C",
"L  c #102650",
"P  c #1E2D56",
"I  c #0D3351",
"U  c #193553",
"Y  c #143659",
"T  c #1B3A5C",
"R  c #262841",
"E  c #252949",
"W  c #243447",
"Q  c #2A3544",
"!  c #2F304E",
"~  c #2C394B",
"^  c #323C4B",
"/  c #243452",
"(  c #2B3453",
")  c #273C54",
"_  c #353D56",
"`  c #1D3D62",
"'  c #384646",
"]  c #2D4152",
"[  c #23405E",
"{  c #2F425A",
"}  c #354453",
"|  c #3C4355",
" . c #3E4856",
".. c #33445C",
"X. c #39445E",
"o. c #254166",
"O. c #2B4364",
"+. c #224269",
"@. c #27486D",
"#. c #2A486E",
"$. c #344767",
"%. c #344867",
"&. c #3A4B64",
"*. c #354A6B",
"=. c #3A4B69",
"-. c #2D5176",
";. c #335176",
":. c #375378",
">. c #3B577D",
",. c #464A5F",
"<. c #444769",
"1. c #414C68",
"2. c #445463",
"3. c #4C5662",
"4. c #4E5068",
"5. c #435773",
"6. c #465C76",
"7. c #4E5D7E",
"8. c #5B5F77",
"9. c #525D79",
"0. c #506577",
"q. c #596676",
"w. c #526378",
"e. c #5B687B",
"r. c #64707E",
"t. c #6B7578",
"y. c #425B82",
"u. c #436186",
"i. c #49658A",
"p. c #4C698E",
"a. c #5E6480",
"s. c #586A80",
"d. c #586788",
"f. c #576989",
"g. c #566C88",
"h. c #527096",
"j. c #55739A",
"k. c #5C749A",
"l. c #5B799E",
"z. c #666A85",
"x. c #697081",
"c. c #6C7886",
"v. c #6E7E8F",
"b. c #71778D",
"n. c #606A90",
"m. c #6C7592",
"M. c #767796",
"N. c #737E90",
"B. c #7A7D90",
"V. c #6481A6",
"C. c #6C85AA",
"Z. c #7087A1",
"A. c #7887A8",
"S. c #6C89B0",
"D. c #7A93B2",
"F. c #A9B39C",
"G. c #8C98A6",
"H. c #8997B4",
"J. c #889AB6",
"K. c #8295BA",
"L. c #9BA0A3",
"P. c #9EA6B0",
"I. c #AFAFA3",
"U. c #A6A9B1",
"Y. c #B5BBB3",
"T. c #8AA3C3",
"R. c #93ABCA",
"E. c #99ADCB",
"W. c #9FB3D0",
"Q. c #ABB8D7",
"!. c #ACC1DA",
"~. c #BBCCE3",
"^. c #D3DFED",
"/. c #D5E1EF",
"(. c #D6E2F0",
/* pixels */
": # : + : # 1 3 # # # , : # : : : : : : : : : : : : 4 : : : : : : & : & : # k # : : + 4 + d X # X + X + + + X # X + + X X # o X # # X X + + ",
"# : , : # : # : # # # : > : : # # : > : # : : : 2 : : 1 : : 2 : W : 1 : & : 3 # : # > : # > # + + + # # + + # X + + X + + + + X + + + X + + ",
"# : & . : # : # : # # # : : : # # : L., : : : : 1 : : 1 : 1 : 1 : : & 1 : : # 1 3 # 2.# # + q.# X + # X + + + + X X + # X # + + X X b + X + ",
"# # : : : : + + # : : : > # # : : : : : : : : : : : k : 1 4 1 : : : 2 1 : : + + : # : + + 4 : - # # + X o + X + + # X # v + 4 & + # + # # X ",
": # # : # k : : m # # # : : # : : : # : : , : : 1 1 > : 1 3 : 1 1 1 : : 1 : H : : # : k : + J + X # + X > # & + + + + X + # + $ X X X # : # ",
"# : g # + X # : : : r : + : : : : : : : : : : : 1 : 1 1 1 ) 1 1 : ) J.> 1 : . 2 : W # : # : + : X # & + X : q.& v : + X + $ X X + + X ~ $ + ",
", : # 4 : # : # 3.: X : : : : : : : : : 1 > : : ( : 3 1 1 1 r g 1 ] r : f : 1 =.: # # @ : # & # + : : 1 q h 1 1 e 3 + + X + + + Q + r + X + ",
"{ : + : : : : : , : : : : # : : : : 3 : : 1 1 1 1 3 1 3 1 3 3 1 3 1 1 1 2 : 2 : : : : & : : + + : 1 3 e B U N h G e.: + + 7 X + v + o o X n ",
"# # : # > 4 # & : : # : : : : : : : : : 3 : 1 : : 3 q : 1 r 1 3 1 - : 1 : 1 1 : : : : : j + # # g H B C Y *.` T Y f 1 < # X # + $ + X + + + ",
": # : : # : + 4 1 : : & 4 : 1 > : r 1 1 1 1 r 1 3 3 6.O.3 3 ) *.3 1 1 P.1 3 : 1 : : : & : # + : ..B %.o.:.k.u.y.o.Z t 1 # . + + X # + X + + ",
"# : # H : : : : & + : : : 3 : # 1 : 1 1 1 1 1 1 1 3 3 1 q 3 e 3 3 1 1 3 : 1 : 1 1 : : : : : # : q t o.p.l.T.D.S.>.[ C 3 # X X + + X # X + + ",
": + # D : v 1 + : > : : : : : 1 1 : 1 1 ~ 3 3 1 1 3 q 3 e 2 r 3 3 r 3 4 1 3 e : 1 : # : : + : - t C +.h.R.~.~.E.l.#.C j # # + + + + X + X # ",
": + & : & : > : : - 1 - 1 : 1 1 v 1 1 1 1 3 - 3 3 3 f 3 { 3 e e 3 r 3 1 r 1 : 1 1 : g.: : : 1 q B T ;.l.!.^./.!.V.-.I t : # . + + X X + + X ",
"# : : - : : : + : : : - 1 1 + 1 1 1 1 1 1 1 3 q q U 3 3 e q 3 q 3 3 3 3 3 3 1 : 1 : J : : 1 t f B ) >.l.!.(./.!.S.p.O.G 3 # $ + + + + + + + ",
"+ # : 1 ..r : w.: & A 1 1 1  .1 1 1 1 1 1 1 q f : r 3 3 f r 3 r q 3 3 1 r 1 3 1 1 : : : : 1 & : t V >.j.T.~.~.R.h.@.Z h : # + + : + X + + + ",
"+ # & + + 2 : : : : 1 : - : 1 : 1 1 1 1 1 q 1 e e e 3 r e e r Y.e e e 3 1 1 : 1 1 : : H : O.4 : D *.o.:.C.D.T.V.u.` N q + X + X $ + + X + $ ",
": 4 & : + : 2.: 3 : : 1 K 1 1 1 1 &.1 q q q r q e : f f f r r 3 e q f 1 < 1 1 : + : : 1 : , 1 K / t Z ` i.i.V.>.#.T t : # + . + + X X X + $ ",
"+ + + # : & & & : : > : > - : - : 1 1 1 6.1 3 q 3 r r e r t f e e q 3 3 3 1 3 3 : 1 : : : 1 D j 1 1 h Z O.o.k.Y C D h : + + # + X + + # + + ",
"& : : 1 - : : & : : + : : - 1 : 1 - 1 1 1 3 3 q 3 q j e r f r e 3 3 e q 3 1 } 1 2 1 : & 1 r 1 # & : 1 G C C f.N t q e 1 + + # X + + + + X X ",
"# # v # # : # # - : : - : 1 & - 2 1 1 1 1 1 3 3 3 3 r 3 r q q q e 3 3 3 3 1 1 1 r 1 : 1 1 : # + < & : G q q 7.e 1 # + # X + + + X + + + # + ",
": + # : : > : : : & . 1 - : : - 1 & - 1 2 1 q 1 e q q q r q q q e q 3 3 3 1 1 1 : 1 : 1 : : + X + + : A # : =.1 # > X # + X + + # +   X + X ",
"^ : : : # & + & : : + - : - 1 &.x 1 - 1 1 1 1 q 1 3 q q 1 q q 1 1 3 3 3 q 1 3 5.3 : : 1 : : : # + : # e + + / 3 # # + X + # + X # + # X 2 # ",
"> X # + + & & 4 : & & : - 1 1 & - & 1 - 1 - 2 - - 1 q ] 4 3 1 q e q 1 { 1 e 1 1 1 1 : 1 : : : # & # 1 # # # x e + X + + # X # X + X + + X X ",
"+ & @ : : + 4 + + & # - : 1 : - - - 1 - 1 q 1 1 1 q 1 1 3 1 q 1 1 1 q 1 1 3 : 1 F 1 : : : : : # # + : + + # 1 r + + + + X + + + # &.X + + + ",
"+ + : 7 & 2 + + + : - & % : v : - W * : w $.e 1 1 q 1 - q 1 1 & q 1 1 - 1 1 1 J 1 1 : : : : & + # # # X # + # 1 + # + + # X + + + X # + # X ",
"& w + 2 + X 4 & & & & & k & - - : - - - 1 - - 1 - 1 q - 1 q q 1 1 1 q - - w 3 s.1 : - : : : # : + + # # X + + + + X X + h h + + + # X + Q + ",
"> & : & + & & e.2 & : : - & & & - y - : - F - - e 1 1 - q - - 1 1 q - 1 1 1 1 1 1 - 1 : + : + # + # + # # X + X # # X # D.W.# $ + X X + # X ",
"+ + @ + @ + & k + X + 2 & - + - : O : - : - - 1 - 1 - 1 - 1 q q q - 1 q 1 1 1 k : 1 : ~ : : 4 : : + X + # X X X X X X X 0.g.# X + + + # # + ",
"& + + & @ + & : & & X - & & - & - @ - F - - - - ; 1 - 1 1 - &.- - - - 1 - j 1 - 1 2 & : v.# : # + > + # > # + X # r.X + : 1 + X + + X X X + ",
"+ + + & & : + > X + + & & - & & : & - - - & 4 S - - 9.- - - - - 1 q - - - 1 1 1 x - : : # : > # + : # + # + + + X + + # + # + ~ X # # X # + ",
"+ + + + + & - + & + & * c : - - - + & & & & - = 1 - - = & - - - - - - & - - - - - & : : : + # 4 + # # X + X + o + X . + X + # X X + + X + + ",
"+ & & N.+ + & & O 2 % & X.* c 2 & u w & X % & - - & = % - - 1 - - w - - 1.- - =.X 1 - i : : > # > # # x X + # # + + + X + X X + + # + X # + ",
"+ & & + + % 5.y i O & * O % O & & * % = - ; & & & = - % - - m._ 1.- = & - - - - - : - : > : # + : + + + X + + # X # o 1 X + + + X + + X # # ",
"+ + + + + : Q.*.& X & % * O & % % = & & = - = % 0 & & % = = - - & = - = - a.w - - - - # & : : : $ + + # + X + + + X + . + + + X + X X # + X ",
"O & + O + & & % % & % O & % & % O & % % % & % % = % = = 8 % = = = = = = = = = - & & & & : & # # 4 + + } X + X + 1 + X + # : $ # + + X + + + ",
"+ + + O @ O % + O % & & % % % O % % + % = & % = % & - = = = = = = = % = = 8.! = & & - & + + & *.o + X # X + X # X # $ + + + + b + X . + X X ",
"O * + X + O + @ O % & % & O & % % O = % % % % = % % = % % = = % = % = ; <.% = w = & - & + : + + + + + + + # X o X # X + + X X + + X + X + # ",
"+ + X O O + O O + O O O % % % % & O O O % % % % % % % = % = = % = = = = % = % = % q  .+ : + & @ + + # + + X # + # # # # + + + X X X X + X + ",
"& + O O + O Q O O O % O % O % O O % % O O O O = % % % % % = % = % = % % = = % % = t = b.:   & 4 + + + X + X # X + + > # + + # + + X X # + + ",
"O + O + O X O + O % O & . O O % % z.O % % % % % % % = = % % % % = % = % % % = % % P % & & + + + & # + X + X : # X X X + + X + + G X d X + + ",
"9 @ O + O + O O X O = % O % O O O % % O % O O % % % % % % % % % % % = % % % % = % = % % & X O + + # Q + + + X + + + + X # + # X + + X X + 5 ",
"+ + + + + O O X O O O % O % % O % O % % % % % % % % % % p % 0 % O % % = = % % % % % % = & < + & z X # X + X # + X + X # X + + 7 + X # X + # ",
"X + O O O X O O X O O % % % & % X % % O % % % O O % % % % % % % = % % % % % % % % % % % + * 6 + + r.# # + X # X z + X + + + X X X + + + X X ",
"O + + + X + + O X % + @ % O O O % O % O O O % % % % O % % % % % % % = % % % = % % % % % & + + & > + # + X # X + + # + + + + + + # + X X + X ",
"O + O + O O + + + O O % % % % O % % % O O % % % % % % % % % % % % % % % = % % % % % % O & + & + + # + + X + X + X X # X X + + + + + # # + X ",
"+ + + O + O O % O O O O O O % O O O O O ,.O ; % % O O % % % % % = % O = % % % % M.% % % % + + + + + # + # + + + + + X + # X X + + + X + + X ",
"O * + X + O + O + O O + % O % % % O % * % O O O O i % % % % % = % % % 0 % % % % % % O % + + + + + + + + # X X + X + + X X + # X X # X # X + ",
"+ + + O + + O X O O O O O % O O O O O % O O O 4.% % % % % % O % % % % % % % % % % % F.; O + & + + + # + + + + + X + $ X # + + + # X + : + + ",
"+ + O + O O + X O O O K.O % O % O O O % O O F.% % % O % O O % % s % % % ; % % O % % & @ O + + + + + # + + x + + # X + + + M # X + X X &.X + ",
"+ + X + X + O + O O A.a O % - O O % X % % O % % * % % % 0 @ % % O % % % % % % % % O O % + & + & + + # X + + X # X # # d X c.+ + + # # # X + ",
"+ @ O + + @ X + O + O O X @ & O O O O % O O % O % % O % % % p O % % % O % % % % % % X O & + + + + + + + # X + X y.# X X X X r +   X + + + # ",
"+ + O X + O O O O O O X O O O O O O O O % O O % % % % 6 O % % = % % % % % % % % O % % O d.& O + + # 5.X X + + X Z.X + X X X + + # Q + + + # ",
". + + O + + * + O O O O O O O O @ O O O . % O % O % % O % % % ! O % O % % % % % O % O & + + + + + # X X + X + X # # + + # X + + + X X + X # ",
". + + + O X + O + X O + O X 6 X O O % O % % . % % % ; O O = % 6 % % O % O % O % % . * . + O O + X + # + + + X . X X + + X + X # + # . o + + ",
"+ + + O + O X O O O O O X @ O O O O O 0 % . % % % % % ; O O % = % % % % % % O O % % . . + + & + + # X X X # X + l # + X $ X X + + + + + + + ",
"X O + X + % & X O + O O O O O O O O . O O = O O O O O O % % % % % % % % % % O @ * % _ O & o : + # # + + # X + < . # $ + + X + + + : + X # X ",
"O + O X O X O O O + O I.O O O O @ X O O O % % R % O O % % p = O O % = % O O % % O O + + + + + + X # X + + t.+ < X X X + ^ + + j X X X X + + ",
"+ + + + + + + w O O O @ X O @ X * O % O s O O E * O % % . 7.; % O % p 6 % % O % % + O & + @ + : + G.# + # + X X X + } + > X + + X H + # X # ",
"+ * + + + O X X X X X O @ O O O % O . O O * O O O % % % % % % * % % O % O % % % % O + + + + + + # X + + $ X + + X # # X + X > # + + + + + X ",
"+ + + o @ & + R X * & & X O O X . O O O % & O O O O % * O % % O % O % % % % % O % + O % + + + + # + + X X + X + # X ^ X + + + 2 + + X # + X ",
"+ E + d o + + O O X X X O * X O . O O O O O B.O = O * % % O = % O % O % % % 4.O O + X X + + # + X # X + # X + + > ' X + o + Q + X + + + + X ",
"@ + + 2 @ > + X + + O O O + X ; O O O * O % s O O p % ; O % = % % % % O O % O % * O + O + + + + # X X + X < # + # X d + + + + X + r.+ X + X ",
". @ + + X + + + @ + O O O X & O @ O . O % O O O O ^.% . % % % * l O % = % O O O & X + + + & X + # + X + + + # + & X X + X < X + + + : l + + ",
"+ > a + a + O O X + X + @ O O X O 6 O O O % = * O u O = O % O O % % O % % % O & % + + @ + . + # X X + + + + X X . + 4 + + # U.# + + + X # + ",
"> X . + + . X + + . . O O + ( . O . 6 ( O O O % O O % % O u % . % O % % % O % X O & + O + + + # + + + > + X + + + + # X , + + X 4 + X + + X ",
"+ O + @ X O O X o @ v X + O + X X O x.. X % O o = O O O O O O % % % % O i % O + O + + + + + + # X + + + + # + + + + X + X + d + + X X + + + ",
"+ + + X X + + X + O + @ + * O O & X O O O O % % n.% O % % O O O % O % % O O O O + + + O + # X # + + X + X # X + + X + X + + ~ + + o + + + + ",
"+ O + O @ @ & O + + + O & O + O O O O s O O O O L O % O O O | % ; % O % O % O O + O + + # X # + + + # X + # X + + + $ + > + + . $ + + + + + ",
"+ + + + X + $ . + + + . @ O X * O . O O @ 6 O % ; * % O O O O O O % % % O % O X & O @ + + + + # # + X # + X + + + + + + H.: v # + # + + X + ",
"+ + O + + @ + + O + X % X X O X O X O O + O % O @ % O % = O O O O O O O % O O O : + + X + + + + X + + X X # + + + + + X f + + X # X X + # X "
};
