/* XPM */
static char *_5118189154046b6d75a519d8ff53281WCIqMK0edpSdvGA2[] = {
/* columns rows colors chars-per-pixel */
"70 70 41 1 ",
"  c None",
". c #423555",
"X c #DE3E6A",
"o c #FF4E4E",
"O c #FF4F4F",
"+ c #FF5050",
"@ c #FE5555",
"# c #FE5556",
"$ c #E2416C",
"% c #EA4670",
"& c #EC4872",
"* c #F24D75",
"= c #F44E76",
"- c #FA527A",
"; c #FC547B",
": c #FD557B",
"> c #FE557B",
", c #FF557C",
"< c #FE567C",
"1 c #FF567C",
"2 c #FF567D",
"3 c #FF577D",
"4 c #FB6163",
"5 c #FA6264",
"6 c #F9696C",
"7 c #FF7197",
"8 c #FF7296",
"9 c #FF7297",
"0 c #5C9AF2",
"q c #5E9BF2",
"w c #5F9CF2",
"e c #609CF2",
"r c #CEE1F8",
"t c #CEE2F8",
"y c #DBE9F7",
"u c #DAE9F9",
"i c #DCEBF8",
"p c #DDEAF9",
"a c #DDEBF9",
"s c #DEEBF9",
"d c #DDEBFA",
/* pixels */
"                                                                      ",
"                                  66                                  ",
"                                 +o++                                 ",
"                                +o+ooo                                ",
"                               5+o+o+o5                               ",
"                               oo+o+o+o                               ",
"                              o++o+o+o+o                              ",
"                             #+oo+o+o+o+#                             ",
"                             aaaddidaaaaa                             ",
"                            aaaadddiaaaaaa                            ",
"                            aaaadsidaaaaaa                            ",
"                            aaaaiidiaaaaaa                            ",
"                           aaaaasdiaaaaaaaa                           ",
"                           aaaaarq000raaaaa                           ",
"                           aaaaaq00000aaaaa                           ",
"                           aaaaqq00000qaaaa                           ",
"                           idiiq00000qqaaaa                           ",
"                          dddsde00000qeaaaas                          ",
"                          idiiss000000aaaadi                          ",
"                          sssddiu0000uaaaadd                          ",
"                          disiidaaaaaaaaaaaa                          ",
"                          ddddssaaaaaaaaaaaa                          ",
"                          ddisdiaaaaaaaaaaaa                          ",
"                          dsidsiaaaaaaaaaaaa                          ",
"                           aisddaaaaaaaaidi                           ",
"                           adsisaaaaaaaadis                           ",
"                           adisiaaaaaaaaidd                           ",
"                          oasiddaaaaaaaadidO                          ",
"                          OdidisaaaaaaaaidiO                          ",
"                         oOddidsaaaaaaaadidOo                         ",
"                        +o+didiiaaaaaaaaiddo+o                        ",
"                        o+oddisdaaaaaaaaddd+o+                        ",
"                       Oo+oaaaaaaaaaaaaaisdOOOO                       ",
"                       O+o+aaaaaaaaaaaaadiiOOOOO                      ",
"                      OOo++aaaaaaaaaaaaaidiOOOOO                      ",
"                     OOO+ooaaaaaaaaaaaaadidOOOOOO                     ",
"                     OOOo+odaaaaaaaaaaaaidiOo+o+O                     ",
"                     OOO+oOdaaaaaaaaaaaadidO+o+oO                     ",
"                     OOOOOOdaaaaaaaaaaaaiddoo+o+O                     ",
"                     OOOOOOdaaaaaaaaaaaadddo+o+oO                     ",
"                     OOOo   ddaaaaaaaaaaaa   o++O                     ",
"                     OO      aayuyyyyyyaa      oO                     ",
"                               ........                               ",
"                              ..........                              ",
"                              ..........                              ",
"                              ..........                              ",
"                             ............                             ",
"                             ............                             ",
"                    99         11111111        99                     ",
"                   9999        111XX111       999                     ",
"                   9999        111XX111        99      9999           ",
"                   999         111XX111                9999           ",
"                              1111XX1111              99999           ",
"                              1111XX1111               9999           ",
"                              1111XX1111                              ",
"             99               1111XX1111                              ",
"            999              11111XX11111                             ",
"             99         1111111111*$1111111111                        ",
"                    111111111111111111111111111111                    ",
"                  1111111111111111111111111111111111                  ",
"                 11111111111111111XXX1111111111111111      99         ",
"                11111111111111111XXXXX11111>=111111111     999        ",
"              1111111XXXX1111111XX11111111XXXXX11111111    99         ",
"              1111111X%1XX111111XX111111111>1-XX11111111              ",
"             111111111111X11111111111111111111&X111111111             ",
"            1111111111111X>11111111111111111111X1111111113            ",
"            11111111111111111111111111111111111X1111111111            ",
"            1111111111111111111111111111111111111111111111            ",
"            1111111111111111111111111111111111111111111111            ",
"                                                                      "
};
